<svg id="Layer_1" data-name="Layer 1" xmlns="http://www.w3.org/2000/svg" viewBox="0 0 1346 580.38"><defs><style>.cls-1{fill:none;}.cls-2{fill:#fe9083;}.cls-3{fill:#7cf3b1;}</style></defs><title>lumbarCure</title><path class="cls-1" d="M1006.06,318.91h32.68q4.3,0,4.61-4.45a14.38,14.38,0,0,0-.8-4.85,28.87,28.87,0,0,0-2.71-6,15.23,15.23,0,0,0-5.21-5.23,14.24,14.24,0,0,0-7.72-2.13,16.47,16.47,0,0,0-8.62,2.33,19,19,0,0,0-6.16,5.66,41.37,41.37,0,0,0-3.71,6.69,35.33,35.33,0,0,0-2,5.67C1006.05,318.14,1005.93,318.91,1006.06,318.91Z" transform="translate(-10 -7)"/><path class="cls-1" d="M497.26,344.51a14.77,14.77,0,0,0-3.24,9.58A14.3,14.3,0,0,0,497.9,364a12.32,12.32,0,0,0,9.46,4.26q4.88,0,11.09-3.29t6.22-5V332.4q-15.42,4.67-18.51,5.88A21.09,21.09,0,0,0,497.26,344.51Z" transform="translate(-10 -7)"/><path class="cls-1" d="M423.77,296.84a23,23,0,0,0-8.48,2c-3.23,1.33-5.39,2.55-6.46,3.66a3.22,3.22,0,0,0-1,2.3v50.76q0,6.38,5.85,10.6a21.62,21.62,0,0,0,12.93,4.24,20.62,20.62,0,0,0,13.33-5.18,35.89,35.89,0,0,0,9.89-13.26,39.71,39.71,0,0,0,3.64-16.45q0-18.08-8-28.36T423.77,296.84Z" transform="translate(-10 -7)"/><path d="M461.08,298.82a34.48,34.48,0,0,0-11.71-10.34,32.57,32.57,0,0,0-15.91-4q-4.93,0-12.62,4.08a91.69,91.69,0,0,0-11.81,7.2c-.34.14-.57.23-.71.27s-.25-.14-.35-.53a3.8,3.8,0,0,1-.15-.88v-42.1q0-11.49,2.22-18.17a3.88,3.88,0,0,0-.76-2.25c-.5-.73-1-1.1-1.46-1.1a90,90,0,0,1-28.68,8.36c-.27.07-.42.56-.45,1.46a21.49,21.49,0,0,0,.05,2.67c.06.87.13,1.3.2,1.3q10.8,0,12.32,3.76,1,2.5,1,10.86V353q0,9.91-2.43,15.45a6.73,6.73,0,0,0,1,2.77c.64,1.22,1.2,1.83,1.67,1.83a10,10,0,0,1,2.32-.57,15.65,15.65,0,0,1,2.07-.16,13.53,13.53,0,0,1,2.27.26c.95.18,1.63.31,2.07.42s1.2.33,2.28.68a20.6,20.6,0,0,0,2.12.62q10.59,3.14,14.94,3.14a49.66,49.66,0,0,0,19.84-4,48.8,48.8,0,0,0,15.9-10.76,49.39,49.39,0,0,0,10.35-16,50.55,50.55,0,0,0,3.79-19.38A47.42,47.42,0,0,0,468,312.61,51.72,51.72,0,0,0,461.08,298.82Zm-11.26,53.12a35.89,35.89,0,0,1-9.89,13.26,20.62,20.62,0,0,1-13.33,5.18,21.62,21.62,0,0,1-12.93-4.24q-5.85-4.23-5.85-10.6V304.78a3.22,3.22,0,0,1,1-2.3c1.07-1.11,3.23-2.33,6.46-3.66a23,23,0,0,1,8.48-2q13.64,0,21.66,10.29t8,28.36A39.71,39.71,0,0,1,449.82,351.94Z" transform="translate(-10 -7)"/><path d="M363.65,367.51q-4.54-.87-4.94-2.2-1-3.06-1-14.15v-21q0-8.79-.58-14.91A56.56,56.56,0,0,0,355,304a20.22,20.22,0,0,0-4.46-8.12,18.78,18.78,0,0,0-7.23-4.59,31.32,31.32,0,0,0-10.76-1.63q-10.86,0-28.76,15.87-2.25-8.42-7.82-12.14t-14.48-3.73a25.84,25.84,0,0,0-11,2.78q-5.76,2.76-14.86,10.22c-.27.26-.46.38-.59.38s-.39-.25-.39-.76c0-1.27.39-4.59,1.17-9.94a3.77,3.77,0,0,0-.73-1.91c-.49-.77-1-1.15-1.42-1.15q-11.25,5.83-28,8a4.93,4.93,0,0,0-.44,2.68,4,4,0,0,0,.44,2.29c1.1,0,2.36.05,3.76.14a27.38,27.38,0,0,1,5.23,1q3.13.86,3.72,2.29,1,2.29,1,10.7v34.78q0,11.1-1,14.15-.39,1.33-4.94,2.2a41.84,41.84,0,0,1-7.38.86,4.94,4.94,0,0,0-.64,2.77,4.07,4.07,0,0,0,.64,2.77c1.82-.07,4.1-.19,6.84-.38s5.17-.34,7.29-.43,4.32-.15,6.6-.15q.88,0,20.94,1a4.13,4.13,0,0,0,.63-2.77,5,5,0,0,0-.63-2.77,41.84,41.84,0,0,1-7.39-.86q-4.55-.87-4.94-2.2-1-3.06-1-14.15V311.22q0-2.3,6.12-6.4a21.57,21.57,0,0,1,12.08-4.11q10.56,0,14.47,6.69T291,331.67v19.49q0,11.1-1,14.15-.39,1.33-4.94,2.2a42,42,0,0,1-7.39.86,5,5,0,0,0-.63,2.77,4.07,4.07,0,0,0,.63,2.77c1.83-.07,4.11-.19,6.85-.38s5.17-.34,7.29-.43,4.31-.15,6.6-.15q.89,0,20.93,1a4.07,4.07,0,0,0,.64-2.77,5,5,0,0,0-.64-2.77,41.84,41.84,0,0,1-7.38-.86c-3-.58-4.68-1.31-4.94-2.2q-1-3.06-1-14.15v-23.5a90.89,90.89,0,0,0-.78-13.57c0-.13,0-.56-.1-1.29s-.1-1.13-.1-1.2q0-.86,2.69-3.39a33.7,33.7,0,0,1,7.43-5,19.63,19.63,0,0,1,9-2.48,20.71,20.71,0,0,1,8,1.39,14.13,14.13,0,0,1,5.33,3.67,16,16,0,0,1,3.13,6.26,45.27,45.27,0,0,1,1.52,8.27q.39,4.31.39,10.42v20.44q0,11.1-1,14.15-.39,1.33-4.94,2.2a41.84,41.84,0,0,1-7.38.86,4.94,4.94,0,0,0-.64,2.77,4.07,4.07,0,0,0,.64,2.77c1.82-.07,4.11-.19,6.84-.38s5.17-.34,7.29-.43,4.32-.15,6.6-.15q.88,0,20.94,1a4.13,4.13,0,0,0,.63-2.77,5,5,0,0,0-.63-2.77A41.84,41.84,0,0,1,363.65,367.51Z" transform="translate(-10 -7)"/><path d="M552.54,365.64c-.07,0-.22.11-.45.31s-.47.39-.7.56a8.4,8.4,0,0,1-1,.6c-.44.24-.85.44-1.25.61a6.71,6.71,0,0,1-1.44.41,9.88,9.88,0,0,1-1.74.15q-6.18,0-6.17-9.53V317q0-11.55-6.52-19.66t-15.17-8.11a42.51,42.51,0,0,0-19.86,5.37,73.06,73.06,0,0,0-16.37,11.25,8.11,8.11,0,0,0-.94,2.38,10.71,10.71,0,0,0-.45,2.48,9.82,9.82,0,0,0,1.89,5.88,5.77,5.77,0,0,0,4.88,2.64q7.65,0,9.35-9.73,1.09-6.39,3.53-9.48t7.42-3.09q7.06,0,12.09,6.13a20.6,20.6,0,0,1,5,13.33v5.47a9.49,9.49,0,0,1-.44,3.55,3.52,3.52,0,0,1-2,1.52c-1.72.81-4.52,1.93-8.4,3.34s-8.71,3.15-14.48,5.17-9.75,3.45-11.94,4.26a15.37,15.37,0,0,0-6.82,5.93,17.58,17.58,0,0,0-3.14,10.28,23,23,0,0,0,23.29,23.31q4.57,0,13.09-5.32t11.39-8.26a19.82,19.82,0,0,0,4.48,9.07q3.48,4.11,7.66,4.11,2.79,0,7.71-2.79a39.86,39.86,0,0,0,7.22-4.91,7.61,7.61,0,0,0,1-3.85C553.33,366.19,553.07,365.64,552.54,365.64ZM524.67,360q0,1.72-6.22,5t-11.09,3.29A12.32,12.32,0,0,1,497.9,364a14.3,14.3,0,0,1-3.88-9.93,14.77,14.77,0,0,1,3.24-9.58,21.09,21.09,0,0,1,8.9-6.23q3.09-1.21,18.51-5.88Z" transform="translate(-10 -7)"/><path d="M106.25,341.85q-4.44,14.89-12.68,20.6A28.39,28.39,0,0,1,83,366.58,63.63,63.63,0,0,1,70,368H58.55q-7.14,0-9.81-.31a8.65,8.65,0,0,1-4.48-1.73q-1.2-1-1.2-14.69V264.14q-.21-11.22,1-15.1.4-1.42,5.64-2.34a49.91,49.91,0,0,1,8.25-.92,5.47,5.47,0,0,0,.65-3,4.44,4.44,0,0,0-.65-3q-20.62,1-23.55,1-3.12,0-23.74-1a4.49,4.49,0,0,0-.66,3,5.55,5.55,0,0,0,.66,3,49.91,49.91,0,0,1,8.25.92c3.49.61,5.36,1.39,5.63,2.34q1,3.27,1,15.1v87.09q0,11.83-1,15.1c-.27.95-2.14,1.73-5.63,2.34a51,51,0,0,1-8.25.92,5.52,5.52,0,0,0-.66,3,4.49,4.49,0,0,0,.66,3c2.48,0,6.27-.11,11.37-.31s9.29-.31,12.58-.31q14,0,36.12.41t32.5.41a61.31,61.31,0,0,1,1.86-7.75c.9-3.06,1.78-5.8,2.62-8.21s2-5.56,3.37-9.44,2.41-6.69,3-8.46c-.8-.82-2.48-1.22-5-1.22C107.39,340.63,106.45,341,106.25,341.85Z" transform="translate(-10 -7)"/><path d="M212.31,365.3l-1.93-.1c-1.22-.06-2.47-.17-3.76-.33a14.51,14.51,0,0,1-3.8-1c-1.26-.5-2-1.16-2.18-2a66.21,66.21,0,0,1-1.38-14.37v-39.7q0-9.65,1.38-12.29a8.48,8.48,0,0,0-.74-2.69c-.5-1.23-1-1.84-1.43-1.84q-10.89,3.21-27.11,3.78a4.18,4.18,0,0,0-.54,2.6,3.59,3.59,0,0,0,.54,2.31q8.91,0,11.08,3.78c1.06,1.89,1.58,5.3,1.58,10.21v40.83q.1,3.51-5.83,7a24.28,24.28,0,0,1-12.36,3.45q-10.29,0-15-7.09t-4.74-22.21V307.83q0-10.4,1.38-13a5.68,5.68,0,0,0-.74-2.32c-.5-1-1-1.46-1.44-1.46q-10.87,3.21-27.1,3.78a4.18,4.18,0,0,0-.54,2.6,3.59,3.59,0,0,0,.54,2.31q8.91,0,11.08,3.78c1.06,1.89,1.58,5.3,1.58,10.21v24.2a85.49,85.49,0,0,0,.55,10.06,56.43,56.43,0,0,0,2.17,10,31.33,31.33,0,0,0,4.26,9,20.58,20.58,0,0,0,7.17,6.14,21.9,21.9,0,0,0,10.58,2.46,35.69,35.69,0,0,0,15.33-3.93A44.76,44.76,0,0,0,183.63,363l.39,1v8.69a4.77,4.77,0,0,0,.45,2.08c.3.63.68.95,1.14.95l1.68-.48c1.19-.31,2.7-.72,4.55-1.23s3.84-1,6-1.51,4.45-.94,6.93-1.32,4.66-.63,6.57-.76c.4,0,.76-.41,1.09-1.23a5.5,5.5,0,0,0,.5-1.79C212.91,366.18,212.71,365.49,212.31,365.3Z" transform="translate(-10 -7)"/><path d="M807.46,336.64q-3.48,15.64-13.26,24-11.85,9.93-28.7,9.94a54.49,54.49,0,0,1-20.33-3.73,48.59,48.59,0,0,1-15.93-10.05,61,61,0,0,1-11.2-14.7,70.5,70.5,0,0,1-6.85-17.76,82.92,82.92,0,0,1-2.23-19.2,66,66,0,0,1,6.42-28.37A58.82,58.82,0,0,1,734.19,254,45.79,45.79,0,0,1,762,244.91q36.42,0,42.61,30.23a4.89,4.89,0,0,0,2.61.62,6.81,6.81,0,0,0,3.27-.88c1.08-.58,1.59-1.19,1.52-1.81q0-2.07-5-30.65a228.43,228.43,0,0,0-46.1-4.35,75.88,75.88,0,0,0-29.46,5.75,70.34,70.34,0,0,0-23.38,15.43A72,72,0,0,0,693,282a69.89,69.89,0,0,0-5.54,27.49,64.94,64.94,0,0,0,5.38,26.09,68.08,68.08,0,0,0,14.73,21.64A68.87,68.87,0,0,0,730.6,372c9.13,3.66,15.06,3.34,23.73,3.34,16.16,0,40.88-1,52.48-7.17q2.07-1.65,4.84-13.77t2.77-16.05A11.16,11.16,0,0,0,807.46,336.64Z" transform="translate(-10 -7)"/><path class="cls-2" d="M1227.22,236.33c-24.32-19.22-39.54-32.33-51.16-44.1s-22.11-28.6-28.22-56.45-3.53-58.22-3.53-58.22L1149.6,7S1136.13,43.49,1132,68.74s-7.66,34.37-7,65.27,2.1,42.88,19.4,68.8c7.6,11.38,25.8,29.58,42.34,42.34,21.13,16.31,42.73,30.57,49.39,42.34,7.62,13.45,9.35,27.5,3.53,51.16-3.68,15-24,31.12-42.34,47.63s-38.84,36.9-54.68,58.21-21.17,45.87-21.17,45.87l-5.29,19.4s14.55-28.41,22.93-40.57,14.93-19,33.52-35.28,55.12-36.8,70.56-52.93,21.42-24.69,28.22-44.1,4.54-37.61-1.76-52.92S1251.54,255.55,1227.22,236.33Z" transform="translate(-10 -7)"/><path d="M1060.29,353.36a1.44,1.44,0,0,0-.5-.34,36.15,36.15,0,0,1-9,6.88,25.66,25.66,0,0,1-13.08,3.39q-14.13,0-23.61-9.74t-9.07-27.47q2.61,0,24.51-.53t26-.82a4,4,0,0,0,3.76-2.38,16.69,16.69,0,0,0,1.05-6.73,22.7,22.7,0,0,0-.8-5.72,29.41,29.41,0,0,0-2.91-6.88,26.75,26.75,0,0,0-5.31-6.73,26,26,0,0,0-8.72-5,35.36,35.36,0,0,0-12.33-2,29.46,29.46,0,0,0-13.63,3.64,47.74,47.74,0,0,0-12.73,9.64,48.86,48.86,0,0,0-9.43,14.73,45.85,45.85,0,0,0-3.7,18.12q0,17.34,11.27,28.82t28.82,11.49A32.34,32.34,0,0,0,1041.5,374a31.29,31.29,0,0,0,8.67-4.46,48.56,48.56,0,0,0,6-5.23,32.75,32.75,0,0,0,4-5,6.81,6.81,0,0,0,1.21-3.49,2.85,2.85,0,0,0-.36-1.35A3.29,3.29,0,0,0,1060.29,353.36Zm-53.88-36.77a35.33,35.33,0,0,1,2-5.67,41.37,41.37,0,0,1,3.71-6.69,19,19,0,0,1,6.16-5.66,16.47,16.47,0,0,1,8.62-2.33,14.24,14.24,0,0,1,7.72,2.13,15.23,15.23,0,0,1,5.21,5.23,28.87,28.87,0,0,1,2.71,6,14.38,14.38,0,0,1,.8,4.85q-.3,4.46-4.61,4.45h-32.68C1005.93,318.91,1006.05,318.14,1006.41,316.59Z" transform="translate(-10 -7)"/><path d="M980.66,291.44a13.2,13.2,0,0,0-6.37-1.62q-5.35,0-11.42,6.69a48.12,48.12,0,0,0-9,13.76.41.41,0,0,1-.22.23c-.08,0-.19,0-.3-.09a.65.65,0,0,1-.17-.53q0-1.42.51-8.93t.7-8.65a4.14,4.14,0,0,0-.65-1.91c-.43-.77-.85-1.15-1.26-1.15q-9.94,5.83-24.75,8a5.58,5.58,0,0,0-.39,2.68,4.51,4.51,0,0,0,.39,2.29c1,0,2.09.05,3.33.14a21.88,21.88,0,0,1,4.63,1c1.85.57,2.95,1.33,3.29,2.29q.87,2.29.87,9.94v35.54q-.18,11.76-.87,14.15-.35,1.33-4.37,2.2a33,33,0,0,1-6.53.86,5.42,5.42,0,0,0-.57,2.77,4.43,4.43,0,0,0,.57,2.77q17.73-1,19.38-1,3.72,0,21.47,1a4.51,4.51,0,0,0,.56-2.77,5.55,5.55,0,0,0-.56-2.77,65.06,65.06,0,0,1-8.79-.86c-3.83-.58-5.87-1.31-6.1-2.2q-.87-3.06-.86-14.15V321.73q0-4.11,4.41-10.65t9.43-6.55a10.7,10.7,0,0,1,6.41,2.3c.17.12.76.59,1.77,1.38a17.52,17.52,0,0,0,2.51,1.72,4.5,4.5,0,0,0,2.12.53q1.74,0,3.72-2.63a11.85,11.85,0,0,0,2-7.31,17.89,17.89,0,0,0-.7-5.16A9.84,9.84,0,0,0,980.66,291.44Z" transform="translate(-10 -7)"/><path d="M620.12,288.61a13.22,13.22,0,0,0-6.59-1.73q-5.56,0-11.85,7.12a51.45,51.45,0,0,0-9.33,14.66.44.44,0,0,1-.23.25c-.09,0-.19,0-.31-.1a.71.71,0,0,1-.18-.56q0-1.53.54-9.52c.36-5.32.59-8.39.71-9.21a4.43,4.43,0,0,0-.67-2c-.45-.82-.88-1.22-1.3-1.22q-10.32,6.19-25.67,8.54a6.15,6.15,0,0,0-.4,2.85,4.92,4.92,0,0,0,.4,2.45c1,0,2.17.05,3.46.15a22.27,22.27,0,0,1,4.8,1.07c1.91.61,3,1.42,3.41,2.44q.9,2.44.9,10.59v37.86c-.12,8.34-.42,13.37-.9,15.06q-.36,1.43-4.53,2.34a33.18,33.18,0,0,1-6.78.92,6,6,0,0,0-.58,2.95,4.85,4.85,0,0,0,.58,2.95q18.4-1,20.1-1,3.87,0,22.26,1a4.84,4.84,0,0,0,.59-2.95,6.05,6.05,0,0,0-.59-2.95,65.4,65.4,0,0,1-9.11-.92q-6-.92-6.32-2.34-.9-3.25-.9-15.06V320.87q0-4.38,4.58-11.35t9.78-7a10.89,10.89,0,0,1,6.64,2.44l1.84,1.48a17.89,17.89,0,0,0,2.6,1.83,4.58,4.58,0,0,0,2.2.56c1.2,0,2.48-.93,3.86-2.8s2.06-4.46,2.06-7.78a19.82,19.82,0,0,0-.71-5.5A10.31,10.31,0,0,0,620.12,288.61Z" transform="translate(-10 -7)"/><path d="M914.39,365.52l-2-.1c-1.27-.06-2.57-.17-3.9-.32a16.41,16.41,0,0,1-4-1c-1.3-.5-2-1.14-2.26-1.95a61.48,61.48,0,0,1-1.43-14.06V309.25q0-9.45,1.43-12a7.62,7.62,0,0,0-.77-2.63c-.51-1.21-1-1.81-1.48-1.81q-11.29,3.15-28.11,3.7a3.86,3.86,0,0,0-.56,2.55,3.43,3.43,0,0,0,.56,2.27q9.24,0,11.49,3.7,1.64,2.77,1.64,10v40q.11,3.44-6,6.81a26.32,26.32,0,0,1-12.82,3.38q-10.66,0-15.59-6.95t-4.92-21.75v-27.2q0-10.19,1.43-12.78a5.29,5.29,0,0,0-.77-2.26c-.51-1-1-1.44-1.49-1.44q-11.28,3.15-28.1,3.7a3.86,3.86,0,0,0-.56,2.55,3.43,3.43,0,0,0,.56,2.27c6.16,0,10,1.23,11.49,3.7q1.63,2.77,1.64,10v23.7a82,82,0,0,0,.56,9.85,52.36,52.36,0,0,0,2.26,9.77,30.15,30.15,0,0,0,4.41,8.79,21,21,0,0,0,7.44,6,23.74,23.74,0,0,0,11,2.41,38.86,38.86,0,0,0,15.9-3.84,46.5,46.5,0,0,0,13.23-8.38l.41.93v8.51a4.63,4.63,0,0,0,.46,2c.31.62.7.93,1.18.93l1.75-.47,4.71-1.2c1.92-.49,4-1,6.21-1.48s4.62-.93,7.18-1.3,4.84-.61,6.82-.74c.41,0,.79-.4,1.13-1.2a5.22,5.22,0,0,0,.51-1.76C915,366.38,914.8,365.7,914.39,365.52Z" transform="translate(-10 -7)"/><path class="cls-3" d="M1317.19,418c1.93-31,38.61-97,38.81-144.65.08-20.25-7.71-37.14-12.35-49.4s-6.49-19.2-1.76-37c2.51-9.5,9.22-42.49,3.52-68.8-4.23-19.58-12.1-41.33-24.69-40.58-18.47,1.1-6.79,2.38-58.22,5.3-25.28,1.43-60-3.53-60-3.53s2.08,7.09,7.06,10.58c5.73,4,10,7.87,37.05,15.88s60.71,4.16,61.74,5.29,7.08,7,7.06,38.81-10.12,35.7-10.59,51.16,6.27,19.9,12.35,35.28,10,15.41,8.82,44.1c-2.38,58.36-31.42,86.18-28.23,141.13,4.38,75.33,42.46,100.81,42.34,100.55C1320.61,481.05,1314.59,459.88,1317.19,418Z" transform="translate(-10 -7)"/><path class="cls-3" d="M1195.47,291c-12.18-12.73-58.72-31.18-75.86-56.45-16.16-23.84-14.28-34.37-14.11-44.11.28-15.77,2.39-25.77,5.29-35.28,3.91-12.78,8.82-26.46,8.82-26.46s-26.8,28.87-35.28,58.22c-4.94,17.1-3.55,31.25,0,44.1s13.64,31.4,38.81,49.39,39.47,22.42,49.4,33.52,8.93,20.82,8.82,24.7-1.84,16.38-37,42.33-49.36,36.57-60,56.45-16.87,35.21-17.88,64.66c-.68,20,6.36,59.9,9.06,71.18s3.53,14.11,3.53,14.11-.62-37.25,0-52.92c.25-6.28.24-26.05,5.29-42.34s12.82-38.64,38.81-60,50.16-33.27,65.27-47.63,27.16-25.47,26.46-49.39S1207.64,303.75,1195.47,291Z" transform="translate(-10 -7)"/></svg>